<svg width="24" height="24" viewBox="0 0 24 24" fill="none" stroke="currentColor" xmlns="http://www.w3.org/2000/svg"><path d="M9.87276 20.9999C10.3472 20.9999 10.7319 20.6162 10.7319 20.1428C10.7319 19.6694 10.3472 19.2856 9.87276 19.2856C9.3983 19.2856 9.01367 19.6694 9.01367 20.1428C9.01367 20.6162 9.3983 20.9999 9.87276 20.9999Z" fill="#003878" stroke-linecap="round" stroke-linejoin="round"></path><path d="M19.3227 20.9999C19.7972 20.9999 20.1818 20.6162 20.1818 20.1428C20.1818 19.6694 19.7972 19.2856 19.3227 19.2856C18.8483 19.2856 18.4636 19.6694 18.4636 20.1428C18.4636 20.6162 18.8483 20.9999 19.3227 20.9999Z" fill="#003878" stroke-linecap="round" stroke-linejoin="round"></path><path d="M3 3H6.43636L8.73873 14.4771C8.81729 14.8718 9.03246 15.2262 9.34657 15.4785C9.66069 15.7308 10.0537 15.8648 10.4569 15.8571H18.8073C19.2104 15.8648 19.6035 15.7308 19.9176 15.4785C20.2317 15.2262 20.4469 14.8718 20.5255 14.4771L21.9 7.28571H7.29545"></path></svg>