<svg width="24" height="24" viewBox="0 0 24 24" fill="none" xmlns="http://www.w3.org/2000/svg" stroke="currentColor"><path d="M18.2742 19V17.3407C18.2742 16.4606 17.9246 15.6165 17.3022 14.9941C16.6799 14.3718 15.8358 14.0222 14.9557 14.0222H8.31855C7.43842 14.0222 6.59433 14.3718 5.97198 14.9941C5.34963 15.6165 5 16.4606 5 17.3407V19" stroke-linecap="round" stroke-linejoin="round"></path><path d="M11.6372 11.6371C13.47 11.6371 14.9558 10.1513 14.9558 8.31855C14.9558 6.48577 13.47 5 11.6372 5C9.80443 5 8.31866 6.48577 8.31866 8.31855C8.31866 10.1513 9.80443 11.6371 11.6372 11.6371Z" stroke-linecap="round" stroke-linejoin="round"></path><path d="M16.5 9C18.433 9 20 7.433 20 5.5C20 3.567 18.433 2 16.5 2C14.567 2 13 3.567 13 5.5C13 7.433 14.567 9 16.5 9Z" fill="#E55026" stroke="none"></path><path d="M18 4L15 7" stroke="white" stroke-linecap="round"></path><path d="M15 4L18 7" stroke="white" stroke-linecap="round"></path></svg>