<svg width="24" height="24" viewBox="0 0 24 24" fill="none" xmlns="http://www.w3.org/2000/svg">
<g clip-path="url(#clip0_525_889)">
<path fill-rule="evenodd" clip-rule="evenodd" d="M12 1.75C7.85786 1.75 4.5 5.10786 4.5 9.25V9.6875C4.5 9.76499 4.48237 9.83837 4.4509 9.90384C5.64167 10.3015 6.5 11.4255 6.5 12.75V14.75C6.5 16.4069 5.15685 17.75 3.5 17.75C1.84315 17.75 0.5 16.4069 0.5 14.75V12.75C0.5 11.0931 1.84315 9.75 3.5 9.75L3.50387 9.75C3.50132 9.72953 3.5 9.70867 3.5 9.6875V9.25C3.5 4.55558 7.30558 0.75 12 0.75C16.6944 0.75 20.5 4.55558 20.5 9.25V9.75C22.1569 9.75 23.5 11.0931 23.5 12.75V14.75C23.5 16.4069 22.1569 17.75 20.5 17.75C20.4565 17.75 20.4132 17.7491 20.3702 17.7472C19.8257 20.3228 17.6289 22.2887 14.941 22.484C14.7246 23.3547 13.9377 24 13 24H11C9.89543 24 9 23.1046 9 22C9 20.8954 9.89543 20 11 20H13C13.9253 20 14.7038 20.6283 14.9322 21.4816C17.1428 21.2923 18.9428 19.6647 19.392 17.5387C18.2835 17.098 17.5 16.0155 17.5 14.75V12.75C17.5 11.4438 18.3348 10.3325 19.5 9.92071V9.25C19.5 5.10786 16.1421 1.75 12 1.75ZM13 21C13.5523 21 14 21.4477 14 22C14 22.5523 13.5523 23 13 23H11C10.4477 23 10 22.5523 10 22C10 21.4477 10.4477 21 11 21H13ZM3.5 10.75C2.39543 10.75 1.5 11.6454 1.5 12.75V14.75C1.5 15.8546 2.39543 16.75 3.5 16.75C4.60457 16.75 5.5 15.8546 5.5 14.75V12.75C5.5 11.6454 4.60457 10.75 3.5 10.75ZM22.5 14.75C22.5 15.8546 21.6046 16.75 20.5 16.75C19.3954 16.75 18.5 15.8546 18.5 14.75V12.75C18.5 11.6454 19.3954 10.75 20.5 10.75C21.6046 10.75 22.5 11.6454 22.5 12.75V14.75Z" fill="white"/>
</g>
<defs>
<clipPath id="clip0_525_889">
<rect width="24" height="24" fill="white"/>
</clipPath>
</defs>
</svg>
